<svg id="Capa_1" enable-background="new 0 0 510 510" height="512" viewBox="0 0 510 510" width="512" xmlns="http://www.w3.org/2000/svg" xmlns:xlink="http://www.w3.org/1999/xlink"><linearGradient id="SVGID_1_" gradientTransform="matrix(1 0 -.016 .989 0 0)" gradientUnits="userSpaceOnUse" x1="189.22" x2="323.814" y1="120.322" y2="254.916"><stop offset="0" stop-color="#8bc727"/><stop offset="1" stop-color="#017b4e"/></linearGradient><linearGradient id="lg1"><stop offset="0" stop-color="#026841" stop-opacity="0"/><stop offset=".2391" stop-color="#0a6644" stop-opacity=".239"/><stop offset=".6113" stop-color="#20604d" stop-opacity=".611"/><stop offset="1" stop-color="#3e5959"/></linearGradient><linearGradient id="SVGID_00000137132460938805904260000011551187831256952464_" gradientTransform="matrix(1 0 -.016 .989 0 0)" gradientUnits="userSpaceOnUse" x1="194.231" x2="102.478" xlink:href="#lg1" y1="309.843" y2="442.45"/><linearGradient id="SVGID_00000034067339049823685420000016535454933703289768_" gradientTransform="matrix(1 0 -.016 .989 0 0)" gradientUnits="userSpaceOnUse" x1="251.761" x2="101.761" xlink:href="#lg1" y1="227.928" y2="429.928"/><linearGradient id="SVGID_00000126284213288528163180000009908772029052027305_" gradientTransform="matrix(1 0 -.016 .989 0 0)" gradientUnits="userSpaceOnUse" x1="292.78" x2="122.114" xlink:href="#lg1" y1="185.683" y2="426.35"/><linearGradient id="SVGID_00000118354717650653686530000002591196645349670052_" gradientTransform="matrix(1 0 -.016 .989 0 0)" gradientUnits="userSpaceOnUse" x1="321.468" x2="160.801" xlink:href="#lg1" y1="130.51" y2="363.844"/><linearGradient id="SVGID_00000170969937787731672840000007464727707118651552_" gradientTransform="matrix(1 0 -.016 .989 0 0)" gradientUnits="userSpaceOnUse" x1="347.125" x2="211.125" xlink:href="#lg1" y1="113.202" y2="310.535"/><linearGradient id="SVGID_00000170961572699534573630000010765843812475026619_" gradientTransform="matrix(1 0 -.016 .989 0 0)" gradientUnits="userSpaceOnUse" x1="366.853" x2="269.52" xlink:href="#lg1" y1="102.213" y2="236.213"/><linearGradient id="SVGID_00000111911543000977569420000016348831201463130020_" gradientTransform="matrix(1 0 -.016 .989 0 0)" gradientUnits="userSpaceOnUse" x1="413.544" x2="323.544" xlink:href="#lg1" y1="57.038" y2="184.371"/><linearGradient id="SVGID_00000037680786671863381760000014655916285737459358_" gradientTransform="matrix(1 0 -.016 .989 0 0)" gradientUnits="userSpaceOnUse" x1="434.241" x2="375.574" xlink:href="#lg1" y1="46.763" y2="142.763"/><linearGradient id="SVGID_00000114794381924233354270000008236052543939936949_" gradientTransform="matrix(1 0 -.016 .989 0 0)" gradientUnits="userSpaceOnUse" x1="473.238" x2="422.571" xlink:href="#lg1" y1="13.987" y2="87.32"/><linearGradient id="SVGID_00000109717391052481345140000012349084546100307390_" gradientUnits="userSpaceOnUse" x1="316.676" x2="244.676" xlink:href="#lg1" y1="241.964" y2="185.964"/><linearGradient id="SVGID_00000006676166531660699180000017620406021462738604_" gradientUnits="userSpaceOnUse" x1="209.943" x2="244.501" y1="219.921" y2="261.595"><stop offset="0" stop-color="#bbec6c"/><stop offset="1" stop-color="#81b823"/></linearGradient><g><g><path d="m470.88 1.07c-41.361 11.87-79.177 24.197-114.897 37.631-10.491 3.945-16.523 14.927-14.14 25.676l5.748 25.934c.965 4.355-4.347 7.428-7.653 4.428l-27.071-24.573c-6.513-5.912-16.031-7.398-24.19-3.72-28.095 12.663-55.381 26.396-82.696 41.588-9.772 5.435-14.127 17.097-10.201 27.339l12.785 33.357c1.422 3.709-2.344 7.381-6.072 5.92l-48.249-18.899c-8.976-3.516-19.324-.863-25.584 6.575-13.49 16.028-22.664 34.581-27.459 54.003-2.684 10.87-5.783 21.637-9.321 32.278-21.974 66.083-25.327 172.698-18.882 177.232 7.794 5.489 82.047-20.134 122.606-31.882 1.801-.523 4.126-1.248 6.825-2.124 17.851-5.794 35.955-10.834 54.341-14.503 45.839-9.146 86.854-41.352 103.301-90.289.273-.812.547-1.622.822-2.432 1.473-4.329 1.564-8.98.259-13.317l-18.658-62.002c-1.284-4.268 3.793-7.713 7.315-4.962l9.575 7.479c11.263 8.798 28.053 4.711 34.211-8.332 15.589-33.02 33.799-65.229 55.293-97.415 5.579-8.354 4.893-19.276-1.684-26.683l-9.774-11.009c-2.961-3.335.26-8.523 4.639-7.474l18.795 4.501c8.621 2.064 17.757-1.143 23.2-8.199 4.261-5.524 8.626-11.06 13.105-16.61 15.462-19.162-2.57-46.323-26.289-39.516z" fill="url(#SVGID_1_)"/><g><path d="m470.88 1.07c-41.361 11.87-79.177 24.197-114.897 37.631-10.491 3.945-16.523 14.927-14.14 25.676l5.748 25.934c.965 4.355-4.347 7.428-7.653 4.428l-27.071-24.573c-6.513-5.912-16.031-7.398-24.19-3.72-28.095 12.663-55.382 26.396-82.696 41.588-9.772 5.435-14.127 17.097-10.201 27.339l12.785 33.357c1.422 3.709-2.344 7.381-6.072 5.92l-48.249-18.899c-8.976-3.516-19.324-.863-25.584 6.575-13.49 16.028-22.664 34.581-27.459 54.003-2.684 10.87-5.783 21.637-9.321 32.278-2.54 7.639-4.828 15.824-6.884 24.326 1.308 17.464 2.026 34.338 2.914 47.08 1.726 24.744-.746 48.789-.371 73.65 36.654-11.13 147.502-28.329 213.323-33.291 26.68-15.896 48.327-40.945 59.211-73.329.273-.812.547-1.622.822-2.432 1.473-4.329 1.564-8.98.259-13.317l-18.658-62.002c-1.284-4.268 3.793-7.713 7.315-4.962l9.575 7.479c11.263 8.798 28.053 4.711 34.211-8.332 15.589-33.02 33.799-65.229 55.293-97.415 5.579-8.354 4.893-19.276-1.684-26.683l-9.775-11.009c-2.961-3.335.26-8.523 4.639-7.474l18.795 4.501c8.621 2.065 17.757-1.143 23.2-8.199 4.261-5.524 8.627-11.059 13.105-16.61 15.461-19.164-2.571-46.325-26.29-39.518z" fill="url(#SVGID_00000137132460938805904260000011551187831256952464_)"/><path d="m470.88 1.07c-41.361 11.87-79.177 24.197-114.897 37.631-10.491 3.945-16.523 14.927-14.14 25.676l5.748 25.934c.965 4.355-4.347 7.428-7.653 4.428l-27.071-24.573c-6.513-5.912-16.031-7.398-24.19-3.72-28.095 12.663-55.382 26.396-82.696 41.588-9.772 5.435-14.127 17.097-10.201 27.339l12.785 33.357c1.422 3.709-2.344 7.381-6.072 5.92l-48.249-18.899c-8.976-3.516-19.324-.863-25.584 6.575-3.446 4.094-6.606 8.355-9.488 12.751 13.387 50.819 3.742 120.566 3.008 168.828 38.494-10.688 156.394-22.714 222.685-25.558 6.225-9.484 11.387-19.937 15.208-31.306.273-.812.547-1.622.822-2.432 1.473-4.329 1.564-8.98.259-13.317l-18.658-62.002c-1.284-4.268 3.793-7.713 7.315-4.962l9.575 7.479c11.263 8.798 28.053 4.711 34.211-8.332 15.589-33.02 33.799-65.229 55.293-97.415 5.579-8.354 4.893-19.276-1.684-26.683l-9.775-11.009c-2.961-3.335.26-8.523 4.639-7.474l18.795 4.501c8.621 2.065 17.757-1.143 23.2-8.199 4.261-5.524 8.627-11.059 13.105-16.61 15.461-19.162-2.571-46.323-26.29-39.516z" fill="url(#SVGID_00000034067339049823685420000016535454933703289768_)"/><path d="m470.88 1.07c-41.361 11.87-79.177 24.197-114.897 37.631-10.491 3.945-16.523 14.927-14.14 25.676l5.748 25.934c.965 4.355-4.347 7.428-7.653 4.428l-27.071-24.573c-6.513-5.912-16.031-7.398-24.19-3.72-28.095 12.663-55.382 26.396-82.696 41.588-9.772 5.435-14.127 17.097-10.201 27.339l12.785 33.357c1.422 3.709-2.344 7.381-6.072 5.92l-36.722-14.384c4.353 45.754-3.99 99.804-5.743 139.286 34.395-8.619 135.315-18.073 201.999-20.937.123-2.465-.157-4.941-.874-7.322l-18.658-62.002c-1.284-4.268 3.793-7.713 7.315-4.962l9.575 7.479c11.263 8.798 28.053 4.711 34.211-8.332 15.589-33.02 33.799-65.229 55.293-97.415 5.579-8.354 4.893-19.276-1.684-26.683l-9.775-11.009c-2.961-3.335.26-8.523 4.639-7.474l18.795 4.501c8.621 2.065 17.757-1.143 23.2-8.199 4.261-5.524 8.627-11.059 13.105-16.61 15.462-19.163-2.57-46.324-26.289-39.517z" fill="url(#SVGID_00000126284213288528163180000009908772029052027305_)"/><path d="m470.88 1.07c-41.361 11.87-79.177 24.197-114.897 37.631-10.491 3.945-16.523 14.927-14.14 25.676l5.748 25.934c.965 4.355-4.347 7.428-7.653 4.428l-27.071-24.573c-6.513-5.912-16.031-7.398-24.19-3.72-27.686 12.479-54.587 26.004-81.504 40.932 2.564 18.746 2.349 39.408.94 60.173l.451 1.178c.663 1.731.189 3.446-.876 4.643-2.299 29.567-6.674 58.971-8.444 82.906 26.437-5.994 93.212-12.322 152.687-15.631l-9.436-31.357c-1.284-4.268 3.793-7.713 7.315-4.962l9.575 7.479c11.263 8.798 28.053 4.711 34.211-8.332 15.589-33.02 33.799-65.229 55.293-97.415 5.579-8.354 4.893-19.276-1.684-26.683l-9.775-11.009c-2.961-3.335.26-8.523 4.639-7.474l18.795 4.501c8.621 2.065 17.757-1.143 23.2-8.199 4.261-5.524 8.627-11.059 13.105-16.61 15.462-19.162-2.57-46.323-26.289-39.516z" fill="url(#SVGID_00000118354717650653686530000002591196645349670052_)"/><path d="m470.88 1.07c-41.361 11.87-79.177 24.197-114.897 37.631-10.491 3.945-16.523 14.927-14.14 25.676l5.748 25.934c.965 4.355-4.347 7.428-7.653 4.428l-27.071-24.573c-6.513-5.912-16.031-7.398-24.19-3.72-12.133 5.469-24.111 11.152-36.01 17.051 1.687 42.99-8.982 93.995-12.727 130.746 18.918-3.793 61.128-7.775 105.585-10.645.752-.256 1.568-.319 2.378-.153 15.713-.999 31.654-1.856 46.909-2.514 15.32-32.13 33.136-63.512 54.078-94.87 5.579-8.354 4.893-19.276-1.684-26.683l-9.775-11.009c-2.961-3.335.26-8.523 4.639-7.474l18.795 4.501c8.621 2.065 17.757-1.143 23.2-8.199 4.261-5.524 8.627-11.059 13.105-16.61 15.461-19.163-2.571-46.324-26.29-39.517z" fill="url(#SVGID_00000170969937787731672840000007464727707118651552_)"/><path d="m497.17 40.585c15.461-19.161-2.571-46.322-26.29-39.515-41.361 11.87-79.177 24.197-114.897 37.631-10.491 3.945-16.523 14.927-14.14 25.676l5.748 25.934c.965 4.355-4.347 7.428-7.653 4.428l-27.071-24.573c-4.319-3.921-9.96-5.881-15.649-5.694-2.171 37.196-11.463 78.392-15.459 108.683 22.357-3.938 79.292-8.134 132.599-10.325 10.474-19.037 21.935-37.908 34.531-56.77 5.579-8.354 4.893-19.276-1.684-26.683l-9.775-11.009c-2.961-3.335.26-8.523 4.639-7.474l18.795 4.501c8.621 2.065 17.757-1.143 23.2-8.199 4.262-5.525 8.627-11.061 13.106-16.611z" fill="url(#SVGID_00000170961572699534573630000010765843812475026619_)"/><path d="m470.88 1.07c-41.361 11.87-79.177 24.197-114.897 37.631-10.491 3.945-16.523 14.927-14.14 25.676l5.748 25.934c.965 4.355-4.347 7.428-7.653 4.428l-5.869-5.327c-2.975 16.31-6.043 31.731-8.165 44.853 19.994-3.042 64.312-6.523 110.262-8.528 4.111-6.564 8.346-13.121 12.723-19.677 5.579-8.354 4.893-19.276-1.684-26.683l-9.775-11.009c-2.961-3.335.26-8.523 4.639-7.474l18.795 4.501c8.621 2.065 17.757-1.143 23.2-8.199 4.261-5.524 8.627-11.059 13.105-16.61 15.462-19.162-2.57-46.323-26.289-39.516z" fill="url(#SVGID_00000111911543000977569420000016348831201463130020_)"/><path d="m447.206 79.377-9.775-11.009c-2.961-3.335.26-8.523 4.639-7.474l18.795 4.501c8.621 2.065 17.757-1.143 23.2-8.199 4.261-5.524 8.627-11.059 13.105-16.61 15.461-19.161-2.571-46.322-26.29-39.515-30.52 8.759-59.104 17.768-86.346 27.285-4.106 24.862-9.56 49.439-13.17 68.225 14.512-1.857 45.984-4.252 81.028-6.144-.615-4.015-2.35-7.865-5.186-11.06z" fill="url(#SVGID_00000037680786671863381760000014655916285737459358_)"/><path d="m497.17 40.585c15.461-19.161-2.571-46.322-26.29-39.515-13.999 4.017-27.583 8.089-40.826 12.237-3.563 16.447-7.842 32.48-11.206 47.588 9.903-1.033 36.44-3.038 66.241-5.011 3.938-5.09 7.956-10.188 12.081-15.299z" fill="url(#SVGID_00000114794381924233354270000008236052543939936949_)"/></g></g><path d="m73.264 425.99c9.027 4.82 82.188-20.403 122.34-32.033 1.801-.523 4.126-1.248 6.825-2.124 17.851-5.794 35.955-10.834 54.341-14.503 45.839-9.146 86.854-41.352 103.301-90.289.273-.812.547-1.622.822-2.432 1.473-4.329 1.564-8.98.259-13.317l-18.658-62.002c-1.284-4.268 3.793-7.713 7.315-4.962l9.575 7.479c11.263 8.798 28.053 4.711 34.211-8.332 15.589-33.02 33.799-65.229 55.293-97.415 5.579-8.354 4.893-19.276-1.684-26.683l-9.774-11.009c-2.961-3.335.26-8.523 4.639-7.474l18.795 4.501c8.621 2.064 17.757-1.143 23.2-8.199 4.261-5.524 8.626-11.06 13.105-16.61 8.418-10.432 6.894-23.225-.057-31.627-276.265 162.141-402.836 378.472-423.848 417.031z" fill="url(#SVGID_00000109717391052481345140000012349084546100307390_)"/><path d="m14.709 510c-1.524 0-3.062-.454-4.402-1.4-3.447-2.435-4.268-7.202-1.833-10.649l39.783-56.326c2.348-3.623 46.394-71.17 118.642-155.609 68.251-79.77 176.435-191.475 304.228-270.639 3.589-2.221 8.298-1.115 10.52 2.472 2.222 3.588 1.115 8.297-2.472 10.52-126.047 78.082-232.983 188.502-300.495 267.384-73.279 85.619-117.229 153.609-117.665 154.286-.059.093-.121.185-.185.275l-39.873 56.453c-1.488 2.107-3.85 3.233-6.248 3.233z" fill="url(#SVGID_00000006676166531660699180000017620406021462738604_)"/></g></svg>